<?xml version="1.0" encoding="UTF-8" standalone="no"?>
<svg width="259px" height="259px" viewBox="0 0 259 259" version="1.1" xmlns="http://www.w3.org/2000/svg" xmlns:xlink="http://www.w3.org/1999/xlink">
    <!-- Generator: Sketch 45.2 (43514) - http://www.bohemiancoding.com/sketch -->
  <title>facebook-icon-single-path</title>
  <desc>Created by Marc Choisnard</desc>
  <path
    id="facebook-icon"
    stroke="none"
    fill="#3b5998"
    fill-rule="nonzero"
    d="M178.409,258.307 L244.082,258.307 C251.936,258.307 258.305,
    251.938 258.305,244.082 L258.305,14.812 C258.305, 6.955 251.937,
    0.588 244.082,0.588 L14.812,0.588 C6.955,0.588 0.588,6.955 0.588,14.812
    L0.588,244.082 C0.588,251.937 6.954,258.307 14.812,258.307
    L138.243,258.307 L138.243,158.522 L104.658,158.522
    L104.658,119.627 L138.243,119.627 L138.243,90.943
    C138.243,57.656 158.573,39.530 188.268,39.530 C202.492,39.530
    214.718,40.589 218.28,41.063 L218.28,75.851 L197.684,75.860
    C181.536,75.860 178.409,83.534 178.409,94.795 L178.409,119.627
    L216.924,119.627 L211.908,158.522 L178.409,158.522 L178.409,258.307 Z">
  </path>
</svg>
